<svg xmlns="http://www.w3.org/2000/svg" width="136" height="30" viewBox="0 0 136 30"><path d="M1.082,24.918a3.688,3.688,0,0,1,0-5.219L19.7,1.082a3.687,3.687,0,1,1,5.215,5.213L6.3,24.918a3.681,3.681,0,0,1-5.214,0ZM18.031,26a.691.691,0,0,1-.5-1.175l7.252-7.283a.694.694,0,0,1,1.19.482L26,25.306a.68.68,0,0,1-.688.694ZM.023,7.977,0,.694A.694.694,0,0,1,.7,0H7.97a.691.691,0,0,1,.5,1.175L1.213,8.458a.687.687,0,0,1-.492.208A.69.69,0,0,1,.023,7.977Z" transform="translate(110 4)" fill="#ffe422"/><path d="M95.395,27.692V15.281a2.3,2.3,0,1,1,4.605,0V27.692a2.3,2.3,0,1,1-4.605,0Zm-10.2,0V15.281a2.3,2.3,0,1,1,4.605,0V27.692a2.3,2.3,0,1,1-4.605,0ZM45.55,19.565V15.456a2.3,2.3,0,1,1,4.605,0v4.109a5.8,5.8,0,1,0,11.6,0V11.927a2.3,2.3,0,1,1,4.605,0v1.046h9.983a2.308,2.308,0,0,1,0,4.616H66.362v1.976a10.406,10.406,0,1,1-20.813,0ZM0,19.955v-4.5a2.3,2.3,0,1,1,4.605,0v4.5A5.376,5.376,0,0,0,9.92,25.378a5.377,5.377,0,0,0,5.315-5.423V15.308L15.079,2.336a2.3,2.3,0,1,1,4.605-.056s.156,12.9.156,12.907v4.768A9.991,9.991,0,0,1,9.92,29.993,9.991,9.991,0,0,1,0,19.955Zm31.472,9.761a2.631,2.631,0,0,1-.4-.12,2.39,2.39,0,0,1-.379-.2,2.1,2.1,0,0,1-.329-.266,2.391,2.391,0,0,1-.266-.33,2.5,2.5,0,0,1-.2-.379,2.653,2.653,0,0,1-.12-.4,2.229,2.229,0,0,1-.041-.428,2.155,2.155,0,0,1,.041-.421,2.742,2.742,0,0,1,.12-.407,2.776,2.776,0,0,1,.2-.373,2.06,2.06,0,0,1,.266-.329,2.58,2.58,0,0,1,.329-.274,2.666,2.666,0,0,1,.371-.2,2.219,2.219,0,0,1,.406-.127,2.168,2.168,0,0,1,.848,0,2.021,2.021,0,0,1,.406.127,2.625,2.625,0,0,1,.372.2,2.361,2.361,0,0,1,.6.6,2.941,2.941,0,0,1,.2.373,2.084,2.084,0,0,1,.119.407,2.169,2.169,0,0,1,.049.421,2.242,2.242,0,0,1-.049.428,2.017,2.017,0,0,1-.119.4,2.64,2.64,0,0,1-.2.379,3.036,3.036,0,0,1-.274.33,2.053,2.053,0,0,1-.329.266,1.983,1.983,0,0,1-.778.323,2.146,2.146,0,0,1-.42.041A2.219,2.219,0,0,1,31.472,29.716Zm39.56-4.7a1.807,1.807,0,0,1,0-3.614h6.193a1.807,1.807,0,0,1,0,3.614ZM28.8,24.3a1.807,1.807,0,0,1,0-3.613h6.193a1.807,1.807,0,0,1,0,3.613Zm-2.465-6.708a2.3,2.3,0,0,1-.462-.047c-.04-.008-.076-.026-.117-.036a2.435,2.435,0,0,1-.313-.1c-.05-.02-.093-.051-.14-.076a2.4,2.4,0,0,1-.25-.136c-.046-.031-.086-.071-.129-.105a2.624,2.624,0,0,1-.212-.175c-.039-.039-.069-.085-.105-.126a2.39,2.39,0,0,1-.175-.214c-.031-.046-.053-.1-.081-.147a2.258,2.258,0,0,1-.131-.243c-.024-.056-.038-.117-.057-.176a2.147,2.147,0,0,1-.079-.255c-.014-.065-.014-.134-.022-.2-.009-.083-.027-.163-.028-.247L23.88,2.336a2.3,2.3,0,1,1,4.605-.055l.128,10.692h8.35a2.308,2.308,0,0,1,0,4.616Zm28.091-.772a2.194,2.194,0,0,1-.637-1.536,2.165,2.165,0,0,1,.637-1.53,2.229,2.229,0,0,1,3.06,0,2.185,2.185,0,0,1,.631,1.53,2.215,2.215,0,0,1-.631,1.536,2.168,2.168,0,0,1-3.06,0ZM96.167,9.568a2.223,2.223,0,0,1-.637-1.537A2.175,2.175,0,0,1,98.121,5.9a2.04,2.04,0,0,1,.406.127,2.625,2.625,0,0,1,.372.2,2.463,2.463,0,0,1,.328.274,2.179,2.179,0,0,1,0,3.067,1.976,1.976,0,0,1-.328.266,2.675,2.675,0,0,1-.372.2,3.01,3.01,0,0,1-.406.12,2.219,2.219,0,0,1-.428.041A2.18,2.18,0,0,1,96.167,9.568Z" fill="#303030"/></svg>